<?xml version="1.0" encoding="UTF-8"?>
<svg xmlns="http://www.w3.org/2000/svg" viewBox="0 0 2197 1200">
  <defs>
    <style>
      .cls-1 {
        font-size: 281.86px;
        font-family: BookAntiqua-Bold, Book Antiqua;
        font-weight: 700;
      }

      .cls-1, .cls-5, .cls-7 {
        fill: #fff;
      }

      .cls-2 {
        fill: none;
      }

      .cls-3 {
        font-size: 217.32px;
        font-family: BrandonGrotesque-Black, Brandon Grotesque;
        letter-spacing: -0.01em;
      }

      .cls-4 {
        letter-spacing: -0.01em;
      }

      .cls-5 {
        stroke: #231f20;
      }

      .cls-5, .cls-6 {
        stroke-miterlimit: 10;
      }

      .cls-6 {
        fill: #231f20;
        stroke: #fff;
      }

      .cls-8 {
        fill: #a63437;
      }
    </style>
  </defs>
  <title>Schnitzler Projektlogo logovarianten_briefe_whitebg_beta</title>
  <g id="Schriftzug">
    <text class="cls-1" transform="translate(436.44 958.23)">PMB</text>
  </g>
  <g id="Hintergrund_Briefe" data-name="Hintergrund Briefe">
    <rect class="cls-2" width="2197" height="1200"/>
  </g>
  <g id="Arthur_Schnitzler" data-name="Arthur Schnitzler">
    <text class="cls-3" transform="translate(195.89 517.19)">ARTHUR<tspan class="cls-4">
                <tspan x="0" y="193.78">SCHNITZLER</tspan>
            </tspan>
        </text>
  </g>
  <g id="Profil">
    <path class="cls-5" d="M1780.85,130.28l1.11.56Z" transform="translate(-5 -1)"/>
    <path class="cls-6" d="M1754.65,132.51l.56,1.12.55-1.12Z" transform="translate(-5 -1)"/>
    <path class="cls-6" d="M1776.39,134.19c1.44,1.59.72.87,2.23,0Z" transform="translate(-5 -1)"/>
    <path class="cls-6" d="M1734.58,137.53l-.56,1.11h1.12Z" transform="translate(-5 -1)"/>
    <path class="cls-6" d="M1749.08,140.87c.77,1.08.05.34,1.11,1.12Z" transform="translate(-5 -1)"/>
    <path class="cls-6" d="M1793.67,141.43v0Z" transform="translate(-5 -1)"/>
    <path class="cls-6" d="M1813.74,159.27v0Z" transform="translate(-5 -1)"/>
    <path class="cls-6" d="M1808.72,161.5v0Z" transform="translate(-5 -1)"/>
    <path class="cls-7" d="M1721.94,153.44v2.23h1.67l-.56-2.23Z" transform="translate(-5 -1)"/>
    <path class="cls-6" d="M1715.25,171.83V173C1715.79,172,1715.76,172.82,1715.25,171.83Z" transform="translate(-5 -1)"/>
    <path class="cls-6" d="M1828.41,184.1v1.11C1829,184.24,1828.92,185.09,1828.41,184.1Z" transform="translate(-5 -1)"/>
    <path class="cls-6" d="M1714.69,193.57l.56,1.12.56-1.12Z" transform="translate(-5 -1)"/>
    <path class="cls-6" d="M1711.9,198.59c.78,1.07.06.33,1.12,1.11Z" transform="translate(-5 -1)"/>
    <path class="cls-6" d="M1707.44,210.85,1708,212l.56-1.12Z" transform="translate(-5 -1)"/>
    <path class="cls-6" d="M1806.11,210.85l1.12.56Z" transform="translate(-5 -1)"/>
    <path class="cls-6" d="M1818.38,227l1.11.56Z" transform="translate(-5 -1)"/>
    <path class="cls-7" d="M1713.58,228.13l-.56,4.46c1.5-.89.77-.18,1.67-1.67C1714.69,228.83,1715.91,229.46,1713.58,228.13Z" transform="translate(-5 -1)"/>
    <path class="cls-6" d="M1716.92,243.74l-.56,1.12c1.69-.7.67,0,1.68-1.12Z" transform="translate(-5 -1)"/>
    <path class="cls-6" d="M1718.59,244.3l1.12.56Z" transform="translate(-5 -1)"/>
    <path class="cls-6" d="M1737,248.2l1.11.56Z" transform="translate(-5 -1)"/>
    <path class="cls-6" d="M1852.38,248.76v0Z" transform="translate(-5 -1)"/>
    <path class="cls-6" d="M1856.28,249.88c.78,1.07.06.33,1.12,1.11Z" transform="translate(-5 -1)"/>
    <path class="cls-6" d="M1741.45,251.55v0Z" transform="translate(-5 -1)"/>
    <path class="cls-7" d="M1707.44,261.58,1708,266l1.12.56C1709.14,263.51,1709.14,262.89,1707.44,261.58Z" transform="translate(-5 -1)"/>
    <path class="cls-6" d="M1777.68,262.7c1,1.38.34.65,1.68,0Z" transform="translate(-5 -1)"/>
    <path class="cls-6" d="M1747.58,271.62v0Z" transform="translate(-5 -1)"/>
    <path class="cls-6" d="M1875.8,280l.55,1.11C1876.12,280.58,1876.8,280.72,1875.8,280Z" transform="translate(-5 -1)"/>
    <path class="cls-7" d="M1892,302.28l-3.9,2.23.56,2.78h2.78c.87-2.35,1.35-1.86,2.79-3.34h-1.11Z" transform="translate(-5 -1)"/>
    <path class="cls-7" d="M1730.86,309l-.56,2.23c1.07-.85,1-1,1.67-2.23Z" transform="translate(-5 -1)"/>
    <path class="cls-6" d="M1701.87,375.86c1,1.14,0,.39,1.67,1.11Z" transform="translate(-5 -1)"/>
    <path class="cls-6" d="M1704.1,393.7l-.56,1.11h1.12Z" transform="translate(-5 -1)"/>
    <path class="cls-6" d="M1682.36,422.13l-.56,1.11h1.12Z" transform="translate(-5 -1)"/>
    <path class="cls-6" d="M1524.6,541.42l.56,1.12.56-1.12Z" transform="translate(-5 -1)"/>
    <path class="cls-6" d="M1536.86,544.77l1.12.55Z" transform="translate(-5 -1)"/>
    <path class="cls-6" d="M1539.65,547.55l-.56,1.12C1540.13,548,1539.4,548.17,1539.65,547.55Z" transform="translate(-5 -1)"/>
    <path class="cls-6" d="M1522.37,557.59v1.11C1522.92,557.73,1522.88,558.58,1522.37,557.59Z" transform="translate(-5 -1)"/>
    <path class="cls-6" d="M1533.52,561.49l1.12.56Z" transform="translate(-5 -1)"/>
    <path class="cls-6" d="M1536.31,587.69l-.56,1.12C1536.79,588.11,1536.06,588.31,1536.31,587.69Z" transform="translate(-5 -1)"/>
    <path class="cls-6" d="M1545.23,600l.55,1.12.56-1.12Z" transform="translate(-5 -1)"/>
    <path class="cls-6" d="M1554.15,659.6c.77,1.07,0,.34,1.11,1.12Z" transform="translate(-5 -1)"/>
    <path class="cls-6" d="M1557.49,704.2v1.67l.56-1.67Z" transform="translate(-5 -1)"/>
    <path class="cls-6" d="M1562,733.74l.56,1.68c1.14-1,.39,0,1.11-1.68Z" transform="translate(-5 -1)"/>
    <path class="cls-6" d="M1555.26,743.22v0Z" transform="translate(-5 -1)"/>
    <path class="cls-6" d="M1555.82,757.16v1.67h1.11Z" transform="translate(-5 -1)"/>
    <path class="cls-6" d="M1561.39,780.57c.94,1.38.34.65,1.68,0Z" transform="translate(-5 -1)"/>
    <path class="cls-6" d="M1548,781.68v0Z" transform="translate(-5 -1)"/>
    <path class="cls-6" d="M1556.93,783.36l1.12.55Z" transform="translate(-5 -1)"/>
    <path class="cls-6" d="M1546.34,796.18l1.12,1.67C1546.75,796.16,1547.47,797.18,1546.34,796.18Z" transform="translate(-5 -1)"/>
    <path class="cls-6" d="M1560.84,802.87l-.56,1.11,1.67-1.11Z" transform="translate(-5 -1)"/>
    <path class="cls-6" d="M1558.61,804l1.11,1.12Z" transform="translate(-5 -1)"/>
    <path class="cls-6" d="M1561.39,804.54v0Z" transform="translate(-5 -1)"/>
    <path class="cls-6" d="M1559.72,807.33c.51,2,0,1.14,1.12,2.23Z" transform="translate(-5 -1)"/>
    <path class="cls-6" d="M1556.38,817.92l1.11,2.23Z" transform="translate(-5 -1)"/>
    <path class="cls-6" d="M1549.69,820.71l1.11,2.23.56-.56v-.56Z" transform="translate(-5 -1)"/>
    <path class="cls-6" d="M1574.21,824.61l1.12.55Z" transform="translate(-5 -1)"/>
    <path class="cls-6" d="M1566.41,836.87l1.11.56Z" transform="translate(-5 -1)"/>
    <path class="cls-6" d="M1567,840.22l.55,1.11C1567.29,840.81,1568,841,1567,840.22Z" transform="translate(-5 -1)"/>
    <path class="cls-6" d="M1556.38,841.89l1.11.56Z" transform="translate(-5 -1)"/>
    <path class="cls-6" d="M1569.2,843.56l1.11.56Z" transform="translate(-5 -1)"/>
    <path class="cls-6" d="M1553,848v0Z" transform="translate(-5 -1)"/>
    <path class="cls-6" d="M1559.72,858.05l1.12.56Z" transform="translate(-5 -1)"/>
    <path class="cls-6" d="M1556.93,863.07v0Z" transform="translate(-5 -1)"/>
    <path class="cls-6" d="M1568.64,868.09c1,1.14,0,.39,1.67,1.11C1569.31,868.07,1570.3,868.81,1568.64,868.09Z" transform="translate(-5 -1)"/>
    <path class="cls-6" d="M1553,881.47v1.11C1553.58,881.61,1553.54,882.46,1553,881.47Z" transform="translate(-5 -1)"/>
    <path class="cls-6" d="M1559.16,895.4l-.55,1.12h1.67l-.56-1.12Z" transform="translate(-5 -1)"/>
    <path class="cls-6" d="M1563.07,904.88v1.67h1.11Z" transform="translate(-5 -1)"/>
    <path class="cls-6" d="M1561.39,918.26v1.11C1561.94,918.4,1561.9,919.25,1561.39,918.26Z" transform="translate(-5 -1)"/>
    <path class="cls-6" d="M1558.61,941.67c1.4.91.09.55,1.67,0Z" transform="translate(-5 -1)"/>
    <path class="cls-6" d="M1562,955.61l1.12.56Z" transform="translate(-5 -1)"/>
    <path class="cls-6" d="M1558.61,979.58v1.11C1559.15,979.72,1559.11,980.57,1558.61,979.58Z" transform="translate(-5 -1)"/>
    <path class="cls-6" d="M1545.23,1029.19c.77,1.07,0,.34,1.11,1.12Z" transform="translate(-5 -1)"/>
    <path class="cls-6" d="M1546.9,1029.19l1.67,1.12C1547.57,1029.17,1548.56,1029.91,1546.9,1029.19Z" transform="translate(-5 -1)"/>
    <g>
      <path class="cls-8" d="M1988.4,795.72c2-3.61,4.85-14.17,2.23-20.07-2-4.23-15.33-7.77-18.4-7.8v-8.37c5,2.64,8.94,6.31,15.61,7.25l1.12-.56c.18-1.11.37-2.23.56-3.34-4.43-2.88-13.73-9.37-17.84-6.69l-2.79-5.58c-4.33-2.49-6.92,0-13.38-1.11-17-2.9-34.27-5.47-49.61-7.8q1.11-5.31,2.23-10.6-1.68-12.25-3.35-24.52v-1.12c2.11-4,6.38-5.34,5-11.15s-9-16.19-6.69-24.53c1.1-4,4.24-3.82,4.46-10l-17.84,1.11-1.11-1.67c19.58-2.36,37.55-.61,55.74-4.46l1.12-1.11c-.91-13.15-5.8-23.55-8.37-34-5.32-21.71-3.39-43.06-10.59-64.66-6.35-19.08-14.55-41.08-18.39-62.44q-.29-14.49-.56-29c-.89-5-3.9-12.39-2.23-19s5.7-13.87,4.46-23.41c-1.16-9-9.36-22.61-6.69-34.56l4.46-10c2.12-10.56-.76-20.11-2.23-29q-1.11-13.66-2.23-27.32c-4-20-12.22-34.75-22.3-48.5-5-6.79-13.52-9.28-19.51-15-5.29-5.09-6.44-11.26-16.16-12.26-1.92-3.22-1.08-3.47,0-7.25-3.83-5.47-8.53-14.06-15.06-16.72-14.34,7.07-29.48,17.35-40.13,28.43h1.11c-5.54,3.39-22,20.18-28.43,20.62,2.24-17.17,36.77-42,50.73-49.61,4.57-2.5,12.63-1.81,17.28-5,6.08-4.18,1.88-9.14,5-15.6.91-1.88,4.31-3.46,5-6.14,1.4-5.3-2.13-9-.56-14.49l-2.79-.56,2.79-.56c-1.12-9-3.38-30.9-7.25-37.9-2-3.63-12.56-7.78-8.92-12.82l1.12-1.12c-1.81-2-2.59-4.06-5-5.57l-8.36,2.78c-1.13-4.38-2.36-7.11-7.81-8.36.75-1.11,1.49-2.23,2.23-3.34l-.55-1.12c-8.59-1.16-15.55.78-22.86,1.12l-7.25-3.35c-5.25-1.61-13.33,2.45-17.28,3.91h-.55c1.28-1.78,2-1.36,2.78-3.91-11.82,0-14.23,8.58-20.07,14.5-2.89-2-3.44-2-8.36-1.68-2.56,3.4-7.14,10.6-7.8,15.06l-3.35.55a17,17,0,0,0,3.35,7.81,184.36,184.36,0,0,1-11.71,31.21c-2.08,4.12,2.91,5,1.12,9.48-2.66,6.69-8.73,10.92-11.71,18.4,2.32,3.94,3.29,6.56,8.92,7.24l1.11,1.68-5.57,2.23c-3.26,2.33-4.19,8.07-3.9,13.93l6.69,8.92c.76,1.49.06.34,1.67,0,1,3.13.65,4,0,7.25l3.34.56c-1.13,5.82-18.92,23.32-5.57,27.87,1.11-2-.26-.94,2.23-1.67.59,4.57,3.8,9.53,6.13,13.93l1.67.56c5.47-4,12.78-5.69,16.73-11.15q1.11-3.9,2.23-7.8c1.86-2.92,6.5-3.26,8.36-6.69l13.38,1.11v1.12l1.11,3.34c-.18.56-.37,1.12-.55,1.67-3.95,2.58-8.29.46-13.38,1.68l-10.59,9.47c.58,7.15.09,6.07-3.35,10.59,1,3.8,3,5.7,5,8.37-3.51,6-10.69,7.69-15.61,12.26a10.84,10.84,0,0,0,3.34,6.69c-2,11.56-14.68,19.56-19,29.54-8.83,20.64-6.19,48.18-15.61,66.34-2.49,4.8-7.64,4.07-11.71,7.25l-8.36,13.93c-3.69,4.76-9.71,7.86-15.05,11.15q-4.45,7.25-8.92,14.5c-2.82,3.94-6.82,5.55-10,8.92q-3.08,6.4-6.13,12.82c-2.16,3.18-3.56.36-6.69,1.67s-18.74,20.23-19,25.09c4.06,5.68,25,25.68,24,29.54l4.46,1.12v.55l-3.9,2.23a15.61,15.61,0,0,1-9.48-4h0l0,0a44.09,44.09,0,0,1-5.08-5.74c0,.06.05.12.08.19h-1.12v-1.47a22.55,22.55,0,0,0-5.57-5.12l-.56.55c2,2.54,5.9,5.31,3.9,10-1.4,2-1.84.58-4.46,1.67-2.41,1.32-2.79,2.84-2.78,5-2.52-.21-2.4,0-4.46,1.11q-1.12-2-2.23-3.9c-2.11,1.34-1.39,1.56-1.12,5-2.59-.2-1.46-1.1-2.79,1.11a10.31,10.31,0,0,1-5.57-6.13h-1.67c.18,1.49.37,3,.56,4.46-2,0-1.41-.42-4.46,0-.19-1.49-.38-3-.56-4.46-2.74,1.24-2.28,1-1.12,3.35l-2.78,1.67-2.23-2.79-1.68,2.79,2.79,2.78,11.71-1.67.56.56v1.67c-5.77,1.83-10.24-.62-17.29,1.12-7.6,1.88-10.1,8.13-19,8.36-2.46-3.14-4.07-4.3-3.34-9.48,3.2-1.42,3.42-4.49,6.69-6.13,1.1-.89.76-.76,2.78-1.11l2.79,5,2.23.56c-.74-2.42-1.49-4.83-2.23-7.25,2.82-.17,6.5-2.55,11.71-2.78q1.11-2.79,2.23-5.58v-.56h-3.35l-1.11-4.46-1.12-.55h-.56c0,4.34.68,6.46,2.23,8.92l-15.6,1.11c-.19-.37-.38-.74-.56-1.11.81-5.36,4.11-8.43,5.57-14.5,11-3.11,24.33-4.64,36.79-5,3.14,3.14,4.62,6.82,8.37,9.47h.55l-6.69-11.15,4.46-2.78v-1.68c-4.87.93-10.12,3.86-13.93,5l-10-.56a145.51,145.51,0,0,0-21.74,5c-1.92,6.27-7.4,12.86-4.46,17.84-12.35,3.07-33.37,5.66-42.92,15.05-.41,4.09,19.9,41.6,23.41,48.5,7.82,15.38,9.93,55.95,12.82,79.71,2.77,22.69,1.88,56.23-3.34,79.72-1.93,8.67-5.58,20.76-3.9,30.66,1.61,9.52,3.67,17.11,7.24,24-1.29,1.5-1.82,25.63-1.11,29.54,1.45,8.05,6.84,14.53,6.13,24.53-2.06,29-2,55.64-6.69,83.62-2.84,17-.58,30.19-3.9,46.27q-3.63,16.72-7.25,33.44c-.55.38-1.11.75-1.67,1.12l-17.28-21.74c-.37,1.3-.74,2.6-1.12,3.9l-4.46-3.9-1.67,1.67,14.5,20.07c4,1.85,7.63,1,9.47,4.46v5c3.6,2,11.6.68,16.73,1.67.16-22,11.06-52.86,16.72-73,1.94-6.9-.19-11.87,1.67-18.95,5.8-22,8.57-59.67,10-84.18,18.82-3.78,20.44,32.26,17.28,50.73-8.36,48.81-11.77,121.16-.56,170.58,2,8.91,1,20.19,3.9,27.87,5.72,1,11.5-1.77,15.61-2.23,4.7-4.94-1.06-34.69-1.11-45.71-.19-35.44-.17-64.55,3.9-94.21.66-4.85-1.57-11.13,1.11-16.16,2.32-3.35,57.9-7.41,68.57-3.9,3.77,4.18,1.16,14.95,2.23,21.74,2.16,13.66,1,31.68,6.13,44.59,2.83.72,9.38,1.45,12.27.56,5.58-6.25,2.41-60.72,3.34-68.57,25.63-1.74,46-7.83,69.12-13.37,10.44-2.5,19.93-1.8,27.88-5.58l1.11,1.12q.28,12.25.56,24.52-.29,7.53-.56,15,1.68,20.07,3.35,40.14v26.76c-5.17,3.82-13.11,3-15.61,9.48,6.81-1.54,8-2.47,15.61-3.91.78,1.06,0,.34,1.11,1.12-5.27,17.93-40.47,33.77-39,50.17l-7.81,1.11-2.23,3.35,1.68,2.79c16.82,6.26,70.56,2.26,81.39-4.46,6-3.74,6.87-8.25,10.59-14.5,5.5-9.25,18-6.54,29-7.24a48.54,48.54,0,0,0,6.69-15.61c-.18-1.49-.37-3-.55-4.46,1.19-2.84,6-4.18,7.24-7.81,4.19-11.9.54-30.26,2.23-41.81,5.84-39.82,14.27-94.73,4.46-136-2.83-11.95,0-23.48-2.78-34l1.11-1.11c1.37,4.77,6.23,9.94,11.71,10.59a159.88,159.88,0,0,1,12.26-16.73c8.52,7.39,13.61,19.45,20.63,28.43-.19.93-.38,1.86-.56,2.79,2,8.2-1.87,16.59.56,25.09l3.9,11.7c3.41,2.05,3.79,1.07,7.25-.55l-1.68,3.34,1.68,2.23,2.78-.56c7.21-6.94,23.48-59.6,20.63-75.25-2-10.72-4.51-21.23-3.35-32.33Zm-55.19-182.39a4.07,4.07,0,0,1-1.67-1.67C1932.59,612.44,1932.46,612.19,1933.21,613.33Zm-3.34,16.17,1.11.56v.55l-1.11.56-.56-1.11ZM1926,625h1.67C1926.06,625.59,1927.37,626,1926,625Zm1.11-37.91c-1.66-.72-.67,0-1.67-1.11C1927.07,586.74,1926.08,586,1927.08,587.13Zm-1.11,7.25h1.11l-1.67,1.12C1925.59,595.12,1925.78,594.75,1926,594.38Zm-7.25-56.86c-1.67-.72-.67,0-1.67-1.11C1918.71,537.13,1917.72,536.38,1918.72,537.52Zm-12.82-30.1-1.12-1.12C1905.84,507.08,1905.12,506.35,1905.9,507.42Zm-1.12-41.81-.55,1.11c-.19-.37-.38-.74-.56-1.11ZM1612.12,508v-1.12C1612.63,507.85,1612.67,507,1612.12,508Zm82.5,48.49-.55-1.11C1695.07,556.1,1694.39,556,1694.62,556.47Zm1.12,289.88c-1.34.65-.73,1.38-1.67,0Zm-1.12,48.5c-1.33.65-.73,1.38-1.67,0Zm-10-399.14c.51,1,.54.14,0,1.12Zm-26.76,20.07a4.07,4.07,0,0,1-1.67-1.67Zm-10-54.63,1.11,1.67h-1.11Zm-3.35,68c11-12.6,29.8-17,39.58-31.22h2.23q1.68,19.23,3.35,38.47l-.56.55c-13.57-1.51-31.85-7.12-44.6-7.24Zm42.37,227.44-.56-1.12C1687.27,756.22,1686.58,756.08,1686.82,756.6Zm-.56-189-1.11-1.11.55-.56,1.68.56ZM1683.47,702l-.55-1.12C1683.92,701.59,1683.24,701.45,1683.47,702Zm-2.23,167.79h-.55c-.19-.74-.37-1.49-.56-2.23C1681.27,868.62,1680.74,867.73,1681.24,869.76Zm-1.67-119.85c-.18-.37-.37-.74-.56-1.12C1680,749.53,1679.34,749.39,1679.57,749.91Zm-3.34-210.16c.18-.37.37-.74.56-1.11C1676.53,539.25,1677.26,539.06,1676.23,539.75Zm-3.9,44.6c-1.06-.79-.34-.05-1.12-1.12ZM1645,711.44l1.67,1.12v.56l-2.23-.56C1644.64,712.19,1644.82,711.82,1645,711.44Zm-1.11-175.59c-.19.37-.38.74-.56,1.11l-.56-1.11Zm-7.81-62.44c-.18-.37-.37-.74-.56-1.11C1636.54,473,1635.85,472.9,1636.09,473.41Zm-10,76.37h1.11v1.68h-.56l-1.11-1.12Zm-13.94,0c.19.75.37,1.49.56,2.23h-.56Zm-8.36-6.13-.56-1.11C1604.21,543.28,1603.52,543.13,1603.76,543.65Zm-26.2,283.74,1.11,1.12C1577.62,827.73,1578.33,828.47,1577.56,827.39Zm4.46,26.2c-.37.38-.74.75-1.12,1.12l-.55-.56.55-1.11H1582Zm-.56-71.91.56-1.11h1.11C1582.13,781.69,1583.15,781,1581.46,781.68Zm3.9,80.83c1.06.79.34,0,1.12,1.12Zm-17.84-71.91-1.67,1.12c-4.18-16.67.33-39.44,1.67-56.86,8.93-2.52,59.42-10.82,63.55-15.05l1.12,1.11c-.46,1.55-.29,1,.56,2.23,6-2.47,38.55-1.3,44,1.67h1.11c1.19,8.11-6.46,20.38-8.36,29q.27,7,.56,13.94C1644.81,761.51,1580,770.71,1567.52,790.6Zm105.36,54.63c-1.33.66-.73,1.39-1.67,0Zm-11.15-3.9c-1.66-.72-.66,0-1.67-1.11Zm-8.36-66.89a8.51,8.51,0,0,1-2.23,1.67L1650,775l.55-.55Zm-21.74,11.7c-.18-.37-.37-.74-.56-1.11C1632.08,785.77,1631.4,785.63,1631.63,786.14Zm-5.57,82.51c-.19-.38-.37-.75-.56-1.12C1626.5,868.27,1625.82,868.13,1626.06,868.65Zm-4.46,41.8-1.67,1.68c.18-1.12.37-2.23.55-3.35Zm-15-134.34,1.67,1.11C1606.21,777.37,1607.59,777.83,1606.55,776.11Zm.55,4.46L1606,782.8c.18-.74.37-1.49.56-2.23Zm-7.8,165.56-.56-1.11C1599.75,945.76,1599.06,945.61,1599.3,946.13Zm-1.12-19.51-.55-1.11C1598.63,926.24,1598,926.1,1598.18,926.62Zm0-95.88c1,.74.33.6.56,1.11C1598.56,831.48,1598.37,831.11,1598.18,830.74Zm-1.67,105.36c1.13,1,.42,0,1.12,1.67h-1.12Zm.56,80.83c-.19-.37-.37-.75-.56-1.12,1.06-.78.34,0,1.12-1.11l1.67,1.11c-.19.37-.37.75-.56,1.12Zm2.23,43.48v-1.12C1599.81,1060.29,1599.84,1059.44,1599.3,1060.41Zm3.9-35.12,1.12,1.11C1603.26,1025.62,1604,1026.36,1603.2,1025.29Zm1.67-116.51v-2.23c.19.75.38,1.49.56,2.23Zm0-8.36-.55-1.11C1605.32,900,1604.64,899.9,1604.87,900.42Zm1.12,96.44c.18-.56.37-1.12.56-1.67C1607,996.56,1606.75,995.66,1606,996.86Zm1.11-29-.55-1.11C1607.55,967.5,1606.87,967.35,1607.1,967.87Zm2.79,93.65c.19-.55.37-1.11.56-1.67C1610.54,1061.31,1611.06,1060.25,1609.89,1061.52Zm2.23-188.41c-.18-.38-.37-.75-.56-1.12C1612.57,872.73,1611.88,872.59,1612.12,873.11Zm1.67,44V916C1614.3,917,1614.34,916.17,1613.79,917.14Zm-1.11-51.28-1.12,1.11c-2.42-2.48-8.07-11.3-7.8-13.93a21.2,21.2,0,0,1,11.15,7.8C1616.18,863.57,1614.93,864.91,1612.68,865.86Zm3.34-25.09,1.12.56-1.12,1.12Zm.56,71.36.56-1.12h1.11C1619.31,912.57,1618.2,911.83,1616.58,912.13Zm.56,3.34c1.66.72.67,0,1.67,1.12ZM1630,946.13l-.56-1.11h1.12Zm6.13-4.46,1.12-.56C1638.41,941.44,1636.09,941.67,1636.09,941.67Zm54.07-55.19c-3.88,14.62-1.16,30.43-1.67,46.83-19,9.7-47.82,3-66.89,10h-1.67q2.22-25.35,4.45-50.72-.27-10.59-.55-21.19c.89,1.1.75.76,1.11,2.79,5.78,3.27,55.85-1.14,65.78-2.23v1.12S1691.13,882.84,1690.16,886.48Zm3.35-112.6c-1.67-.72-.67,0-1.67-1.12C1693.5,773.49,1692.51,772.74,1693.51,773.88Zm.56,126,2.23.56v1.12c-.38.55-.75,1.11-1.12,1.67H1693c-.18-.56-.37-1.12-.56-1.67Zm0,19.51v-1.11C1694.57,919.25,1694.61,918.4,1694.07,919.37Zm-.56,68.57,1.11,1.12v1.67H1693C1693.14,989.8,1693.32,988.87,1693.51,987.94Zm2.23-61.88-.56-1.11C1696.19,925.69,1695.5,925.55,1695.74,926.06Zm.56,81.39H1698C1696.63,1008.1,1697.24,1008.83,1696.3,1007.45Zm1.67-35.68c1.12,1,.41,0,1.11,1.68Zm1.67-36.79-.56-1.11C1700.09,934.61,1699.4,934.47,1699.64,935Zm2.23,63.55-.56-1.11C1702.32,998.16,1701.63,998,1701.87,998.53Zm5.58-273.15.55-1.11,1.12,1.11Zm-.56-182.29v-.55l1.67-.56C1710.52,541.51,1708.55,542.87,1706.89,543.09Zm109.26,30.11-.56,1.11-.56-1.11ZM1813.92,935v-1.67h.56C1814.29,933.87,1814.1,934.43,1813.92,935Zm.56-38.46h1.11v2.79H1815C1814.85,898.38,1814.66,897.45,1814.48,896.52ZM1802.77,730.4l-.56,1.11c-.18-.37-.37-.74-.56-1.11Zm-4.46-29.55c.19.37.37.75.56,1.12h-1.12C1797.94,701.6,1798.12,701.22,1798.31,700.85Zm0,14.5-1.12-1.12C1798.25,715,1797.53,714.28,1798.31,715.35Zm-1.67-159.43-.56-1.12C1797.08,555.54,1796.4,555.4,1796.64,555.92ZM1795,723.71l1.68.56c2.36,1.54,2.89,3.38,1.67,5.57-1.61,1.8-5.74,1.93-8.36.56h-1.12v-.56C1790.52,727.14,1793,726.11,1795,723.71Zm-6.68-160h1.11l-.56,1.12C1788.65,564.46,1788.46,564.09,1788.28,563.72Zm3.34,146c-.19.37-.37.75-.56,1.12l-.55-1.12ZM1767.09,537c3.79,1.68,24.64,20.51,25.64,24-16.38-.77-17-17.85-32.88-20.07C1763,539.37,1764.82,539.08,1767.09,537Zm20.63,305.49V843l-1.12.56-.55-1.11.55-.56Zm-5-283.19-2.23,1.12c.19-.38.37-.75.56-1.12Zm-25.64-25.64c-2-.39-1.68-.22-2.79-1.12C1756.28,532.89,1756,532.73,1757.06,533.62Zm-12.82,6.13c11.36.75,17.84,1.74,25.08,7.25,4,3,4.34,7.14,10,8.92l1.11,1.67c-.18.74-.37,1.49-.56,2.23a87.29,87.29,0,0,1-29.54-1.12l-7.25-1.67c-4.49,1.08-10,5.74-14.49,5.58l-1.12,1.67q1.13,2.22,2.23,4.46c-2.15,1.87-3.49,1.14-4.46,4.46h-3.34c-.19-.37-.37-.75-.56-1.12,1.66-4.81,1-10.38-.56-15.61C1727.6,549.69,1738.06,547.2,1744.24,539.75Zm32.89,23.41.55-1.11c.19.37.38.74.56,1.11ZM1771,855.82l-1.11-1.11C1770.94,855.49,1770.22,854.75,1771,855.82Zm-6.69-110.37c-1-.78-.33,0-1.11-1.12ZM1761,727.61l-1.11-1.11C1760.9,727.28,1760.18,726.54,1761,727.61ZM1749.81,576c-1.66-.72-.67,0-1.67-1.11C1749.8,575.59,1748.81,574.85,1749.81,576Zm-6.69,212.39c-1.66-.72-.67,0-1.67-1.11C1743.11,788,1742.12,787.23,1743.12,788.37Zm-9.47-206.81H1732c.19-.37.37-.74.56-1.12h.56C1733.27,580.82,1733.46,581.19,1733.65,581.56ZM1721.38,532a4.84,4.84,0,0,1-1.67-2.23Zm0,320.53c-1.34.65-.73,1.38-1.67,0Zm-5-311.62c-.18.38-.37.75-.55,1.12-.19-.37-.37-.74-.56-1.12Zm-2.78,8.92,1.11.56-1.11,1.12Zm3.34,17.29,2.23.55v6.13l-5.57,1.68c-.19-.75-.37-1.49-.56-2.23ZM1713,862c1.14,1.09.61.19,1.11,2.23H1713Zm-.56,74.14,1.67,1.11C1712.47,936.49,1713.47,937.24,1712.46,936.1Zm49.62-1.67c.18-.38.37-.75.55-1.12C1762.69,934.44,1763.22,933.94,1762.08,934.43Zm3.9-.56h-.56c-.37-.37-.74-.75-1.12-1.12l1.12-1.11h1.11C1766.35,932.38,1766.16,933.12,1766,933.87Zm45.71-10c.18-.37.37-.74.56-1.11C1812.53,923.93,1812.69,923.09,1811.69,923.83Zm-1.67-6.69c-9.41,1.13-24.2,5.24-34,7.25l-63.55,6.13h-.56c-2.9-10.51,1.51-60.06,5-62.43,4.3-2.12,12.16.45,16.73-.56,12.29-2.72,67.89-1.77,75.25-8.36l6.13,1.67Zm3.9,110.94v-1.68h2.23c.18.56.37,1.12.56,1.68v.55H1815Zm6.13,13.93h-2.23l-1.11-.55c.18-.38.37-.75.55-1.12,2,.39,1.68.22,2.79,1.12Zm0-84.17v-1.67l1.12,1.11Zm2.23-104.25c-.19-.92-.37-1.85-.56-2.78.37.93.75,1.86,1.12,2.78Zm3.34,67.46c-.18-.38-.37-.75-.55-1.12C1826.07,920.67,1825.39,920.53,1825.62,921.05Zm1.12-.56c1.66.72.67,0,1.67,1.11ZM1839,737.65l-1.11-1.68C1839,737,1838.3,736,1839,737.65ZM1830.64,1066c1.72-2.92,3.28-3.94,5.58-6.13q-1.12-1.95-2.23-3.9l8.92,1.67C1841.51,1060.72,1833.75,1064.7,1830.64,1066Zm23.41-6.13-.55-1.11C1854.5,1059.48,1853.82,1059.33,1854.05,1059.85Zm7.25-418.64c-.18-.38-.37-.75-.56-1.12C1861.75,640.83,1861.07,640.69,1861.3,641.21Zm11.15,430.91c.19-.56.37-1.12.56-1.68h.56C1872.84,1072.11,1873.59,1071.11,1872.45,1072.12Zm6.13-338.93,1.67.55v.56H1878Zm-.55,325v-.56l2.22-1.11,1.68.55C1880.72,1058,1880.43,1058.06,1878,1058.18Zm20.62-349.52-1.11-1.12C1898.59,708.32,1897.87,707.59,1898.65,708.66Zm2.23-1.12-1.11.56c-.19-.56-.38-1.11-.56-1.67Zm-4.46-13.38h1.67c.37,1.86.75,3.72,1.12,5.58l-3.9-1.12Zm-3.34.56,1.11,1.12C1893.13,695.06,1893.85,695.79,1893.08,694.72Zm-3.35,3.35c-1.66-.72-.67,0-1.67-1.12Zm-2.79,308.27.56-1.12c.19.37.37.74.56,1.12Zm0-49.62c.38-.55.75-1.11,1.12-1.67h1.11l-1.11,2.23Zm1.68,50.73c.18-.56.37-1.11.55-1.67C1889.63,1007.15,1889.38,1006.26,1888.62,1007.45Zm1.11-185.07c1.06.78.34,0,1.12,1.11Zm2.79-128.77c-1.09-1.45-.55-.53-.56-2.23l1.12.55C1892.89,692.49,1892.7,693.05,1892.52,693.61Zm2.79,122.08V814c1.12,1,.41,0,1.11,1.67Zm3.34,170.58,1.12,1.11C1898.71,986.6,1899.43,987.34,1898.65,986.27Zm2.79-47.94-2.23-.56c.18-.37.37-.74.56-1.11h1.67Zm1.11-245.84h-1.67v-1.67l1.67,1.11Zm3.35,56.86c-1.06-.78-.34,0-1.12-1.11Zm-1.67,4.46c.18-1.3.37-2.6.55-3.9.19,1.11.37,2.23.56,3.34Zm2.23,54.63-.56-1.11C1906.9,808.06,1906.22,807.92,1906.46,808.44Zm1.11,27.32-1.11-1.68,2.22.56Zm45.71-77.49c1,1.61.72.41,0,2.23v1.12l-1.11-1.12Zm-35.12,8.92,1.12,1.11C1918.22,767.52,1918.94,768.26,1918.16,767.19Zm6.69-2.23c-.18-.37-.37-.74-.56-1.11h1.12Zm-.56-3.34v-1.68l1.12.56Zm4.46,62.43c1.06.78.34,0,1.12,1.11ZM1926,751v-2.23c3.06.2,4.51.72,6.13,2.23Zm7.8,3.91c1.66.72.67,0,1.67,1.11C1933.78,755.32,1934.77,756.06,1933.77,754.93Zm3.34,56.3v-1.67h.56C1937.49,810.11,1937.3,810.67,1937.11,811.23Zm1.12-17.84v-1.11C1938.74,793.27,1938.77,792.42,1938.23,793.39Zm.56-39.58-.56-1.11C1939.23,753.43,1938.55,753.29,1938.79,753.81Zm2.78,56.3h1.12l-.56,1.12Zm2.79-30.66v-1.67H1946C1945.48,778.34,1944.92,778.9,1944.36,779.45Zm3.9,41.81h1.12l-2.23,1.68Zm7.25,26.2v1.12l-7.8-10,2.23-1.11c3.9,1.89,4.35,5.13,6.69,8.36Zm3.35-55.18c-.19.37-.38.74-.56,1.11l-.56-1.11Zm.55,79.71c-1.33.65-.73,1.38-1.67,0Zm0,14.49-.55.56h-.56c-.37-1.67-.75-3.34-1.12-5l2.23.56c.19.56.37,1.12.56,1.67C1959.78,885,1959.6,885.74,1959.41,886.48Zm1.68-2.23v-1.11C1961.59,884.13,1961.63,883.28,1961.09,884.25Zm6.13-127.65c1.58,1.76.59,6.15.55,8.92h-.55C1965.39,763.26,1966.22,759.13,1967.22,756.6Zm0,72.47v-1.68l1.67.56Zm1.67-62.44c.19-.55.37-1.11.56-1.67.18.74.37,1.49.55,2.23h-.55Zm1.11,9.48v-2.79l1.12,1.67C1970.75,775.37,1970.38,775.74,1970,776.11Zm2.79,50.73c-.18-.37-.37-.75-.56-1.12h1.12C1973.16,826.09,1973,826.47,1972.79,826.84Zm5.58-16.73c-.19-.37-.38-.74-.56-1.11h1.11Z" transform="translate(-5 -1)"/>
      <path class="cls-8" d="M1613.79,529.72v.2c.35.42.7.85,1,1.28C1614.27,529.79,1614.87,530.68,1613.79,529.72Z" transform="translate(-5 -1)"/>
      <path class="cls-8" d="M1618.81,535.85l1.1,1.09v0C1619.15,535.9,1619.87,536.63,1618.81,535.85Z" transform="translate(-5 -1)"/>
      <path class="cls-8" d="M1974.46,753.81c-.18.37-.37.74-.55,1.12C1974.74,754,1974.79,755,1974.46,753.81Z" transform="translate(-5 -1)"/>
    </g>
    <path class="cls-6" d="M1824.51,1076l-.56,1.11h1.12Z" transform="translate(-5 -1)"/>
    <path class="cls-7" d="M1818.38,1078.81l-3.9,4.45h.55l4.46-2.78C1818.79,1078.79,1819.5,1079.81,1818.38,1078.81Z" transform="translate(-5 -1)"/>
    <path class="cls-6" d="M1827.3,1078.81l1.67.55Z" transform="translate(-5 -1)"/>
    <path class="cls-7" d="M1841.79,1079.92l-.56.56,1.12,1.11.56-1.67Z" transform="translate(-5 -1)"/>
    <path class="cls-6" d="M1612.12,1081l1.12.56Z" transform="translate(-5 -1)"/>
    <path class="cls-6" d="M1798.87,1082.15l1.11.56Z" transform="translate(-5 -1)"/>
    <path class="cls-6" d="M1787.16,1087.17l1.12.55Z" transform="translate(-5 -1)"/>
    <path class="cls-7" d="M1601.53,1090.51v2.79h.56l.55-.56C1601.93,1091.14,1603,1091.74,1601.53,1090.51Z" transform="translate(-5 -1)"/>
    <path class="cls-6" d="M1835.66,1092.18l.56,1.12C1836,1092.78,1836.66,1092.92,1835.66,1092.18Z" transform="translate(-5 -1)"/>
  </g>
  <g id="Briefe_weiss" data-name="Briefe weiss">
    <g>
      <path class="cls-8" d="M725.3,928l-.33-6.46a71.88,71.88,0,0,0,11.52-9.13q.68-19.05-2.64-83.93-2.4-47-4.78-66.45-1.23-10.54-3.52-12.22-3.16-2.6-21.07-2.51l-.59-11.54,26.42-.8,20.22-.62q9.21-.48,27.19-1.88,17.43-1.36,25-1.76,30.51-1.56,44.23,8t14.62,27.15Q862.49,784,850,796.11t-35.94,18.3l.06,1.1q24.55,1.23,34.69,5.67a37.94,37.94,0,0,1,16.71,14.6,46.89,46.89,0,0,1,7.26,23.5q.84,16.38-8.38,31.48a64.62,64.62,0,0,1-25.25,23.64q-16,8.55-45.86,10.07-5.91.3-17.75.43-11,.08-18,.44Q749.72,925.75,725.3,928Zm47-116.09,7.14-.36q23.24-1.2,32.22-10.06t8.07-26.73q-.8-15.68-8.81-22.7t-25.46-6.14a139.29,139.29,0,0,0-15.75,1.91Q771,790,771.51,799.5Zm5.41,97.7a59.39,59.39,0,0,0,15,1.3q19.47-1,29.31-12.73t8.74-33.45q-.72-14.16-5.92-22.92A31,31,0,0,0,811.16,829q-8.52-4-23.87-3.19l-13.84.84.18,3.58,1.55,35.61,2.11,36Z" transform="translate(-5 -1)"/>
      <path class="cls-8" d="M894.77,919.28,894.19,908q13.84-1.39,15.86-2.46a6.06,6.06,0,0,0,2.48-2.75q1.34-3.37,1-14.68-.48-20.13-1.32-36.64-1.63-31.8-2.76-37.67a6.57,6.57,0,0,0-2.72-4.76q-2.13-1.34-17.7-1.1l-.54-10.58q27.56-4.07,39.29-8.56l13.85-6c1.28-.06,2,.77,2.06,2.51v1.93q0,8.68.83,24.9a204.86,204.86,0,0,0,14.66-17.83q5.92-8,10.48-10.6c3-1.72,7.17-2.71,12.39-3a28.29,28.29,0,0,1,9,1.06q-.54,13.82.26,37.5l-6.07,2.51q-3.43-5.2-7.32-7.15A19.82,19.82,0,0,0,968,813a23.53,23.53,0,0,0-13.94,5q-5.69,4.57-7.06,10.17-.88,4.2.34,28.18,1.78,34.89,3,40.62.75,3.84,2.88,5.11,3.27,1.9,20.91,1.83l.57,11.27-15.41.38q-14.73.34-25.45.89-10.17.51-23.62,1.62Z" transform="translate(-5 -1)"/>
      <path class="cls-8" d="M1010.09,913.39l-.58-11.27q15.5-1.35,17.84-2.85t2.7-7.86q.65-8.73-.86-38.32-.66-12.81-1.63-23.66l-1.23-16.08q-.4-8-2.22-9.75t-9.39-1.66l-10.33.11-.54-10.58q33-4.2,54-14.61l3.58,2.58q-.72,26.41,1.85,76.7,1.5,29.05,2.76,35.08.9,4.23,2.8,5.38t18.09,1.56l.58,11.27q-24.84.44-38.39,1.14Q1041.81,910.93,1010.09,913.39Zm28-201.39a21.39,21.39,0,1,1-14.86,7A20.55,20.55,0,0,1,1038.09,712Z" transform="translate(-5 -1)"/>
      <path class="cls-8" d="M1216.56,876.2l4.18,3.8-5.49,13.46a79.48,79.48,0,0,1-20.77,10.31,92.06,92.06,0,0,1-24,4.3q-30,1.54-48.11-15t-19.76-48q-1-19.95,3.4-33.28a39.59,39.59,0,0,1,12.63-18.31,156,156,0,0,1,21-14.45,58.18,58.18,0,0,1,26.68-7.71q22.54-1.15,37.9,10.7t16.78,39.81c.11,2.29.11,5.79,0,10.49l-22.29,5.28q-10.4,1.21-30.15,2.23l-29.78,1.52q3.27,23.61,16,35t31.41,10.42a54.64,54.64,0,0,0,15.41-3.07A69.17,69.17,0,0,0,1216.56,876.2Zm-79.3-49.38q12.43.46,24.8-.17,10.86-.55,22.76-2.27l-.2-6.49q-.86-17-7.45-24.44T1160,786.52a22.22,22.22,0,0,0-12.6,4.3,21.77,21.77,0,0,0-7.45,10.69Q1137.7,808.26,1137.26,826.82Z" transform="translate(-5 -1)"/>
      <path class="cls-8" d="M1237.7,901.74l-.58-11.27,8.49-1.12q8.36-.84,10.38-3.16t2.09-11.58q.12-19.35-1.26-46.23l-2-33.21q-13.56,1.38-22.47,2.53l-.36-7.15,12.76-7.41,2.27-1.21,1.33-.76,3.85-2.26-.66-12.92q-.66-15.54,2.49-22.66t17.71-21.65q19.65-19.74,24.58-23.17,8.51-6.07,20.88-6.72a44.68,44.68,0,0,1,8,.35,61.36,61.36,0,0,1,8.64,1.83q-1.51,16.2-2.11,34.29l-5.3,1.37a47,47,0,0,0-12.4-8,27.24,27.24,0,0,0-11.83-2.22q-7.56.39-11.23,4t-4.17,11.52q-.48,8,1.26,42.17l14-.72a137.79,137.79,0,0,0,23.26-3.25l1.77,2.1a144.36,144.36,0,0,0-2.71,17.1q-8.15-.27-15.29.09l-20.21,1q3.06,59.69,4.81,77.84.94,10.32,3.67,12.39,3.43,2.73,24.65,2.47l.58,11.27q-20.22.21-38.88,1.16T1237.7,901.74Z" transform="translate(-5 -1)"/>
      <path class="cls-8" d="M1459.85,863.4l4.17,3.79-5.48,13.47A79.48,79.48,0,0,1,1437.77,891a92.06,92.06,0,0,1-24,4.3q-30,1.53-48.11-15t-19.76-48q-1-19.93,3.4-33.28a39.54,39.54,0,0,1,12.63-18.3,155.06,155.06,0,0,1,21-14.46,58.3,58.3,0,0,1,26.68-7.71q22.54-1.15,37.89,10.7T1464.36,809c.11,2.3.11,5.8,0,10.5l-22.29,5.28q-10.4,1.22-30.15,2.23l-29.78,1.52q3.27,23.61,16,35t31.41,10.41a54.62,54.62,0,0,0,15.41-3.06A69.17,69.17,0,0,0,1459.85,863.4ZM1380.55,814q12.42.48,24.8-.16,10.85-.55,22.76-2.27l-.2-6.49q-.87-17-7.45-24.44t-17.17-6.94A22.22,22.22,0,0,0,1390.7,778a21.73,21.73,0,0,0-7.45,10.69Q1381,795.46,1380.55,814Z" transform="translate(-5 -1)"/>
    </g>
  </g>
  <g id="Layer_14" data-name="Layer 14">
    <polygon points="2030.66 623.72 2030.97 1100.58 1827.9 1100.29 1827.59 623.43 2030.66 623.72"/>
    <path class="cls-7" d="M1990.44,1062.24h-3.53a39.09,39.09,0,0,0-4.67-6.52q-10.37-.87-45.79-.78-25.68.08-36.33.85-5.79.39-6.76,1.6-1.48,1.65-1.92,11.41l-6.3,0,.26-14.42.2-11q0-5-.31-14.86-.29-9.54-.3-13.67,0-16.67,5.51-23.88t15.18-7.25a20.6,20.6,0,0,1,16.23,7.08q6.28,7.11,9,20.06h.6q1.31-13.35,4-18.75a20.68,20.68,0,0,1,8.39-8.72,25.5,25.5,0,0,1,13-3.33,29.45,29.45,0,0,1,16.92,5.39,35.25,35.25,0,0,1,12.22,14.39q4.23,9,4.27,25.24c0,2.16-.07,5.38-.24,9.69q-.24,6-.23,9.83Q1989.89,1048.89,1990.44,1062.24Zm-62-28.66v-3.9q0-12.69-4.62-17.82t-14.35-5.1q-8.57,0-12.61,4.2t-4,13.71a74.19,74.19,0,0,0,.62,8.63q23.05.39,28.23.37Zm53.38-.37a32.46,32.46,0,0,0,1.1-8.16q0-10.63-6.16-16.31t-18-5.64q-7.73,0-12.64,2.62a16.94,16.94,0,0,0-7.3,7.13q-2.38,4.53-2.37,12.92l.1,7.56h2l19.44.1,19.67-.2Z" transform="translate(-5 -1)"/>
    <path class="cls-7" d="M1990.17,960.9h-4.05a41.32,41.32,0,0,0-4.23-7.27q-11.72-1.47-49.24-1.37-25.61.08-33.93.62c-3,.16-4.82.67-5.59,1.55s-1.43,4.6-2,11.15l-6.31,0q.63-17.7.61-28l-.79-41.32q0-6.52.5-11.77l.83-.53a160.57,160.57,0,0,0,22,2.34l0,5.93q-11,.4-11.71.9c-.5.33-1,1.46-1.42,3.42q-1.34,6.23-1.3,19.07,0,6.3.56,14.71,23.2.92,36.94,1,.51-8,.49-15.09,0-10.44-.71-12.54a3,3,0,0,0-2.19-1.79q-1.35-.45-9.46-1v-6.45q12.7.33,16.55.33l16.93-.42v6.45q-9.89.55-11.39,1.38a2.86,2.86,0,0,0-1.28,2q-.83,3.76-.78,16.9c0,2.75.19,6,.55,9.68q4,.14,8.08.13,21.38-.06,32.9-.84l.19-14.89a184.69,184.69,0,0,0-1.42-23.24q-6.94-1.86-15.77-3.56l0-6.23a247.78,247.78,0,0,0,25.68,2q.54,6.82.56,13.13,0,4.13-.22,16.29-.22,11.34-.2,20.87Q1989.61,947,1990.17,960.9Z" transform="translate(-5 -1)"/>
    <path class="cls-7" d="M1990.05,846.61h-6.31a55.18,55.18,0,0,0-.77-8.93,5.93,5.93,0,0,0-1.24-3.07,6,6,0,0,0-3.19-1.34q-3.24-.53-23.71-.84-14.55-.2-29.7-.15-29.78.08-30.34.27c-.37.13-.56,1.9-.55,5.31q0,10.46.65,18c.26,2.91.51,4.55.76,4.93a2.44,2.44,0,0,0,1.32.86q.94.3,13.18,1.24v6.46q-14.37-.11-24.76.82l-.61-.83q1.07-23.64,1-46t-1.26-49.91l1.2-.83q10.32,1.39,24.17,2l0,6.23q-12.66.71-13.71,1.39a3.3,3.3,0,0,0-1.13,2.4q-1,6-.93,23.88c0,1,.16,1.6.46,1.8a13.59,13.59,0,0,0,4,.29l50.49.31q21.95,0,26.93-.44t6-1.83q.67-1,1.54-11.86h6.31q-.5,11.05-.47,23.46Q1989.5,836.46,1990.05,846.61Z" transform="translate(-5 -1)"/>
    <path class="cls-7" d="M1982.46,781.09q-.39-7.05-1.45-8.7c-.5-.75-2.41-1.92-5.71-3.51q-9.77-4.56-27.13-11.64L1883,730.84l0-11,80.54-34.14q15.24-6.64,16.7-8.19t1.94-9.5l6.83,0q-.49,12.24-.46,23.11,0,13,.59,24.69l-6.83,0c-.26-6-.6-9.39-1-10.32a2.25,2.25,0,0,0-2.24-1.38q-1.4,0-9.52,3.18l-12.53,5q-.2,9.33-.17,20.82,0,10,.27,18.19l8.45,3.28q3.45,1.34,10.27,3.27a10,10,0,0,0,2.79.44,2.43,2.43,0,0,0,2.38-1.47c.46-1,.93-4.49,1.4-10.54l6.83,0q-.51,7.35-.48,18.3,0,10.43.57,16.58Zm-73-49.05,38.64,15.74q.36-6.91.34-15.25,0-8.71-.42-16.67Z" transform="translate(-5 -1)"/>
  </g>
</svg>